<?xml version="1.0"?>
<svg xmlns="http://www.w3.org/2000/svg" viewBox="0 0 512 512" width="512" height="512"><g id="Street_cutout" data-name="Street cutout"><path d="M168,240H336a8,8,0,0,0,6.86-12.116l-48-80a8,8,0,0,0-13.72,0L272,163.12l-29.14-48.566a8,8,0,0,0-13.72,0l-68,113.33A8,8,0,0,0,168,240Zm120-72.45L321.87,224H308.53l-27.2-45.332Zm-52-33.331L289.87,224H182.13Z"/><path d="M324,136a28,28,0,1,0-28-28A28.032,28.032,0,0,0,324,136Zm0-40a12,12,0,1,1-12,12A12.013,12.013,0,0,1,324,96Z"/><path d="M168,272H344a8,8,0,0,0,0-16H168a8,8,0,0,0,0,16Z"/><path d="M168,296H312a8,8,0,0,0,0-16H168a8,8,0,0,0,0,16Z"/><path d="M344,280h-8a8,8,0,0,0,0,16h8a8,8,0,0,0,0-16Z"/><path d="M392,344V40a8,8,0,0,0-8-8H128a8,8,0,0,0-8,8V344a8,8,0,0,0,8,8H384A8,8,0,0,0,392,344Zm-16-8H136V48H376Z"/><path d="M464,488H396.944l-13.789-27.578A8,8,0,0,0,376,456H320V408h88a8,8,0,0,0,8-8V16a8,8,0,0,0-8-8H104a8,8,0,0,0-8,8V400a8,8,0,0,0,8,8h88v48H136a8,8,0,0,0-7.155,4.422L115.056,488H16a8,8,0,0,0,0,16H464a8,8,0,0,0,0-16ZM112,24H400V392H112Zm96,384h96v48H208Zm-75.056,80,8-16H371.056l8,16Z"/><path d="M496,488h-8a8,8,0,0,0,0,16h8a8,8,0,0,0,0-16Z"/></g></svg>
