<svg xmlns="http://www.w3.org/2000/svg" xmlns:xlink="http://www.w3.org/1999/xlink" width="1440" height="716" viewBox="0 0 1440 716">
  <defs>
    <clipPath id="clip-path">
      <rect id="Background" width="1440" height="716" transform="translate(-0.43 0.481)" fill="#f6ddda"/>
    </clipPath>
  </defs>
  <g id="Mask_Group_8" data-name="Mask Group 8" transform="translate(0.43 -0.481)" opacity="0.5" clip-path="url(#clip-path)">
    <g id="Whangaehu" transform="translate(-188.17 -447.198)" opacity="0.2">
      <path id="Shape" d="M1247.213,534.043c.112-19.484,44.912-41.394,64.05-52.692,37.839-22.342,77.193-42.974,116.182-63.936s78.084-41.867,115.264-64.88c24.14-14.938,52.506-31.764,68.878-53.095,34.878-45.458-75.088-38.707-103.572-39.7-72.464-2.54-155.579-1.38-223.5-25.053-40.547-14.132-56.716-37.833-48.007-72.374,2.808-11.234,11.116-24.161,4.077-35.1-7.516-11.688-24.807-18.433-39.158-22.956-52.344-16.478-112.526-18.388-167.909-20.456-59.72-2.273-120-1.608-179.3-1.784-25.144-.074-51.4-7.387-75.348-13.331-31.389-7.79-62.4-16.541-93.537-25C616.848,25.107,546.275,5.549,473.824.834c-45.375-2.955-94.969,1.04-130.217,26.74-17.7,12.9-26.962,32.088-37.193,49.128-12.386,20.587-24.28,41.373-37.466,61.636C226.47,203.6,165.825,267.371,67.389,270.576c-14.892.483-29.516-1.091-44.337-1.387-9.439-.182-17.838,1.665-21.347,9.658C-7.116,298.9,20.61,330.556,31.978,346.466c24.891,34.827,52.961,68.093,79.253,102.218,17.4,22.57,47.508,53.413,47.824,80.836.281,24.434-39.86,42.094-61.713,54.129-20.477,11.268-57.579,27.037-59.825,49.958-1.088,11.114,7.965,20.325,17.418,27.474C71.5,673.582,90.592,682.4,105.5,696.663c24.442,23.4,44.863,55.595,41.544,87.126-2.3,21.848-17.7,36.156-37.284,49.833-8.231,5.75-14.913,9.819-15.347,19.155-.7,14.825,6.47,30.514,12.377,44.259,21.137,49.19,51.158,96.757,84.558,141.17,16.688,22.195,34.715,44.321,56.842,63.255,14.494,12.432,34.038,27.229,56.139,27.212,25.593,0,52.673-7.478,77.551-13.069,46.468-10.449,92.37-22.529,138.089-34.922q158.6-43.009,314.211-92.985c73.073-23.508,147.7-47.051,216.4-78.3a250.061,250.061,0,0,0,37.768-21.371c12.527-8.486,28.071-12.28,43.832-15.109,97.825-17.564,205-4.08,303.228,4.376,24.933,2.142,49.866,4.3,74.87,5.8,21.5,1.29,47.229,4.989,68.12-.568,41.165-10.938,5.178-51.254-10.035-67.679C1514.794,757,1445.684,708.061,1381.628,658.1c-30.456-23.792-61.144-47.521-89.945-72.659C1276.686,572.376,1247.116,551.125,1247.213,534.043Z" transform="translate(1968.853 1477.762) rotate(180)" fill="rgba(0,0,0,0)" stroke="#c1c8d8" stroke-miterlimit="10" stroke-width="2"/>
      <path id="Shape-2" data-name="Shape" d="M1174.684,491.439c16.418-20.618,45.224-35.856,69.136-50.2,34.41-20.646,69.9-40.144,104.858-60.205,33.055-18.972,66.179-38.156,96.789-59.7,18.665-13.137,42.085-28.847,50.926-48.278,19.178-42.116-83.994-35.726-109.464-36.827-63.321-2.727-135.105-3.351-193.69-25.526-36.579-13.847-51.607-36.81-43.806-68.69,2.7-11.03,7.556-20.447,1.4-31.42-7.114-12.7-23.475-20.618-38.475-26.206-46.986-17.51-102.526-21.231-153.459-24.327-52.618-3.2-107.439-5.45-158.368-3.113-20.365.931-43.806-4.356-63.964-8.412C705.558,42.288,674.864,35.083,644,28.379,581.293,14.748,516.954,1.616,451.717.122,404.618-.957,355.51,4.892,316.325,27.5c-39.711,22.929-57.331,58.473-79.357,92.262-38.033,58.416-89.4,129.441-177.391,141.783-13.342,1.875-26.165.858-39.494,1.318-6.854.233-14.656.971-18.132,6.441-9.024,14.2,15.705,40.162,24.026,51.038,22.991,30.057,48.841,58.641,72.934,88.121,19.137,23.406,43.391,49.414,50.793,77.159,8.982,33.667-49.7,57.627-70.343,81.334-35.778,41.11,32.008,64.533,65.428,84.134,38.379,22.5,70.055,63.556,35.653,98.373-13.16,13.315-29.354,21.249-35.231,38.622-9.192,27.172-2.24,58.223,5.218,85.083a412.763,412.763,0,0,0,53.187,116.81c17.317,26.126,46.046,67.095,88.117,64.023,28.321-2.05,57.112-9.542,84.69-16.164,41.291-9.911,82.062-21.208,122.617-32.943,93.625-27.01,186.208-56.794,276.97-89.554,61.932-22.361,234.682-113.744,247.68-117,38.756-9.712,82.822-8,122.779-6.5,53.148,2,106.037,7.179,158.881,11.979,25.154,2.272,50.435,5.049,75.717,6.168,17.993.8,41.635,1.477,57.4-6.991,30.771-16.522-3.511-54.327-17.689-70.321-43.434-49.033-98.376-91.5-149.892-134.911-25.281-21.318-50.947-42.6-73.9-65.624C1187.738,522.842,1164.536,504.173,1174.684,491.439Z" transform="translate(1914.781 1438.443) rotate(180)" fill="rgba(0,0,0,0)" stroke="#c1c8d8" stroke-miterlimit="10" stroke-width="2"/>
      <path id="Shape-3" data-name="Shape" d="M1115.5,457.424c44.838-41.256,103.055-72.361,156.467-106.818,26.808-17.3,43.981-41.571,67.1-62.175,12.027-10.715,27.042-24.265,29.363-39.2,6.193-39.957-86.8-34.553-114.63-36.071-53.811-2.943-114.6-5.174-163.421-25.566-29.827-12.465-44.515-32.923-38.94-59.814,2.471-11.931,6.319-22.066,0-33.781-6.4-11.866-19.744-20.242-33.253-26.52C979.371,49.423,931.128,43.65,887.419,39.349A1301.683,1301.683,0,0,0,732.859,33.5c-45.217.96-90.217-9.84-134.367-16.959C540,7.113,480.457-1.119,420.607.125c-47.268.989-94.908,8.755-135.313,29.4C244.233,50.541,219.546,82,197.288,115.955c-33.646,51.328-75.578,120.1-149.393,139.6-10.736,2.84-20.741,3.153-31.814,3.648-5.378.239-12.323.312-14.991,4.852-6.42,10.932,17.3,32.124,23.926,39.506,21.134,23.581,44.042,46.1,65.705,69.361,20.221,21.719,42.248,44.354,54.812,69.807,19.99,40.536-43.918,64.238-42.123,102.864,1.116,23.981,29.489,41.178,51.958,53.075,27.666,14.629,67.5,24.248,81.342,50.944,10.314,19.885-5.87,31.459-18.332,46.547-21.12,25.566-22.559,60.222-20.362,89.816A296.43,296.43,0,0,0,232.266,903.3c8.924,16.666,19.862,34,35.966,46.941,15.092,12.13,29.374,15.238,49.539,12.755,61.731-7.613,124.06-28.833,183.26-47.786,74.376-23.816,147.728-50.109,218.89-79.692,48.524-20.175,98.144-41.519,140.735-69.391,11.1-7.267,22.465-15.163,30.585-24.748,6.137-7.2,8.737-13.152,19.084-17.265,30.655-12.186,73.3-9,106.141-7.732,52.524,2.017,104.786,7.386,156.983,12.221,30.458,2.84,87.837,11.777,112.159-9.658,20.994-18.51-4.339-50.07-17.28-66.375-32.733-41.235-74.84-77.425-113.907-114.689-17.9-17.078-23.036-27.369-37.827-46.355-1.764-2.26-4.024-4.864-6.15-7.749-2.187-2.966-4.165-6.252-4.719-9.386C1104.556,467.653,1110,462.512,1115.5,457.424Z" transform="translate(1864.844 1408.085) rotate(180)" fill="rgba(0,0,0,0)" stroke="#c1c8d8" stroke-miterlimit="10" stroke-width="2"/>
      <path id="Shape-4" data-name="Shape" d="M1029.53,413.887c41.432-36.48,91.347-66.449,135.827-100.587,19.943-15.306,40.083-31.362,55.28-50.034,8.174-10.041,16.849-22.68,14.6-35.161-6.467-35.82-82.949-32.585-113.847-34.683-45.911-3.08-98.656-6.184-139.255-25.5-26.594-12.651-36.566-31.334-31.6-55.43,5.33-25.847-6.587-44.61-33.708-59.029-34-18.064-76.924-25.426-116.4-30.657a985.08,985.08,0,0,0-143.914-8.3c-46.86.728-92.26-5.629-138.811-9.762-61.72-5.475-125.42-8.176-186.444,3.047C278.123,17.56,230.132,39.1,194.156,72.4c-37.577,34.763-56.179,78.559-86.691,117.017-19.033,23.988-45.569,55.72-81.125,65.044-11.857,3.11-33.476-1.086-24,14.212,5.415,8.75,15.548,16.426,23.553,23.579,12.935,11.559,26.3,22.8,39.452,34.2,28.033,24.3,58.054,49.121,79.065,77.894,26.474,36.229-12.879,64.112-8.082,100.847,2.577,19.769,19.553,35.547,37.521,47.942a306.853,306.853,0,0,0,37.324,21.469c13.554,6.78,29.6,11.944,41.426,20.705,16.849,12.469,9.536,27.229,6.377,43.348a283.017,283.017,0,0,0-3.64,85.672c3.848,35.018,12.872,71.037,31.881,102.86,7.395,12.389,16.763,25.526,30.674,33.83s28.3,7.738,44.24,5.236c47.282-7.392,94.466-24.591,139.318-40.892,56.137-20.406,111.171-43.211,163.727-69.155,36.278-17.91,72.675-37.259,103.025-61.539,8.827-7.067,17.226-14.635,24.016-23.084,4.663-5.8,7.163-13.27,13.918-17.625,21.137-13.594,63.573-9.535,88.362-8.744,49.473,1.575,98.166,9.063,147.576,10.882,26.966.995,69.2,3.5,89-15.09,18.624-17.472,1.755-44.991-9.375-61.826-21.875-33.1-51.263-62.594-77.6-93.365-10.828-12.662-22.7-25.91-29.712-40.369C1008.147,432.566,1018.912,423.24,1029.53,413.887Z" transform="translate(1796.197 1361.86) rotate(180)" fill="rgba(0,0,0,0)" stroke="#c1c8d8" stroke-miterlimit="10" stroke-width="2"/>
      <path id="Shape-5" data-name="Shape" d="M959.022,382.061c32.979-32.1,72.735-60.6,105.952-93.22,19.443-19.1,52.927-51.223,37.891-78.157-16.5-29.6-74-30.4-107.236-32.788-39.56-2.839-86.014-6.717-119.873-25.2-10.708-5.842-19.829-13.575-23.7-23.761-4.139-10.9.386-20.439.976-31.352,1.235-22.892-15.647-41.27-37.989-53.892C783.47,25.85,743.987,17.413,706.694,11.531A810.49,810.49,0,0,0,578.453,1.766c-41.132.114-81.829-.624-123-1.476C401.6-.846,347,.987,294.767,12.564c-51.453,11.412-98.234,32.8-134.98,64.258-35.848,30.7-60.035,68.221-81.218,106.442-12.02,21.694-32.326,54.113-61,65.071C4.818,253.214-7.7,252.879,5.863,265.563c17.072,15.971,40.079,28.785,59.853,42.445,28.523,19.713,57.761,39.811,81.7,63.248,15.289,14.966,22.1,29.489,21.05,48.867-.814,14.764-4.5,29.37-2.639,44.189,4.368,34.781,38.213,58.632,68.132,80.842,19.247,14.285,36.824,25.181,46.731,45.5,11.717,24.016,16.641,50.144,24.468,75.08,8.6,27.383,18.538,55.867,37.315,79.985,16.715,21.472,37.047,31.1,67.466,25.313,47.454-9.016,94.23-31.226,136.353-51.773,42.879-20.9,85.022-44.409,120.555-73.144,19.184-15.516,32.276-33.736,49.314-50.405,21.425-20.927,69.907-13,98.718-11.23,47.826,2.941,198.313,24.947,184.427-46.329-5.8-29.75-28.621-57.207-45.314-83.46-6.918-10.895-16.931-23.971-18.5-36.456C933.8,404.641,949.107,391.727,959.022,382.061Z" transform="translate(1735.879 1329.437) rotate(180)" fill="rgba(0,0,0,0)" stroke="#c1c8d8" stroke-miterlimit="10" stroke-width="2"/>
      <path id="Shape-6" data-name="Shape" d="M892.725,361.329c25.2-29.09,55.362-56.572,76.986-87.991,14.028-20.348,27.8-47.534,9.707-69.064-20.425-24.3-65.462-29.959-98.555-33.055-34.1-3.187-74.8-5.868-102.665-24.29-8.866-5.868-16.174-13.781-17.536-23.256-1.311-9.089,2.392-18.177,1.165-27.431-2.75-20.779-18.313-37.9-38.378-50.318C664.088,9.188,575.739,1.02,504.118.059c-35.849-.477-72.743,2.028-108.824,3.823-46.819,2.329-93.71,7.328-138.359,19.376C162,48.866,98.368,105.66,53.927,176.331c-13.988,22.245-24.689,46.313-46.609,64.19-11.3,9.231-8.83,15.86,2.722,24.278,18.061,13.156,40.093,23.21,60.139,34.191,28.512,15.616,57.634,31.464,82.85,50.17,17.381,12.895,29.719,25.319,33.464,44.654,2.672,13.786,2.048,27.835,3.655,41.706a139.627,139.627,0,0,0,32.068,74.363c14.729,17.325,32.265,33.072,50.389,48.086a389.008,389.008,0,0,1,61.38,62.6c23.721,30.709,57.052,87.355,112.926,72.364C508.536,676.4,566.3,634.367,605.834,593.644c13.278-13.673,24.177-30.442,42.084-40.525,26.808-15.07,54.009-14.542,85.894-14.479,47.739.086,151.616,8.475,152.738-49.42.442-22.938-11.818-44.626-17.69-66.689C862.242,397.82,875.513,381.153,892.725,361.329Z" transform="translate(1686.994 1305.979) rotate(180)" fill="rgba(0,0,0,0)" stroke="#c1c8d8" stroke-miterlimit="10" stroke-width="2"/>
      <path id="Shape-7" data-name="Shape" d="M834.432,341.155c24.927-37.914,80.83-100.213,38.311-142.373-22.457-22.284-62.179-30.654-95.5-35.643-26.815-4.036-59.154-5.552-79.415-22.66-14.892-12.579-8.281-30.886-13.987-46.633-7.081-19.524-23.335-35.5-43.307-47.5C584.721,12.791,507.116,2.493,439.975.3c-69.73-2.27-146.563,8.348-212.181,28.78C145.978,54.564,84.684,102.815,41.819,163.92c-7.9,11.279-15.1,22.854-22.689,34.269-5.1,7.658-12.667,15.065-16.689,23.121-6.695,13.431,1.193,24.409,13.839,33.162,18.191,12.6,40.536,21.571,61.274,31.028,28.36,12.943,57.35,25.653,83.731,40.837,17.727,10.218,36.283,21.225,42.627,38.953,4.33,12.091,5.228,24.9,5.074,37.419-.337,26.85,1.4,48.563,16.885,73.153,25.475,40.372,64.65,76.673,106.034,106.878,32.479,23.7,83.871,60.529,131.193,44.68,42.459-14.191,67.293-48.16,95.271-75.622,13.6-13.351,28.879-25.544,46.83-35.041,22.633-11.972,43.94-17,70.755-18.954,45.133-3.3,113.185-4.155,127.137-47.978,5.151-16.173,2.21-32.924,4.912-49.306C811.533,378.853,821.856,360.28,834.432,341.155Z" transform="translate(1647.472 1283.212) rotate(180)" fill="rgba(0,0,0,0)" stroke="#c1c8d8" stroke-miterlimit="10" stroke-width="2"/>
      <path id="Shape-8" data-name="Shape" d="M772.11,320.483c17.751-41.485,41.07-93.767-1.8-130.637C749.541,171.984,720.33,162,692.064,154.537c-20.248-5.347-52.4-6.922-64.811-23.362-9.117-12.1-10.38-28.789-18.628-41.752-10.855-16.967-27.51-32.028-48.65-43.991C507.5,15.491,439.156,3.919,376.828.606,241.4-6.582,103.6,50.672,31.132,144.871c-21.609,28.079-49.5,57.965-14.581,86.651,38.125,31.3,95.557,45.957,141.06,68.194,17.386,8.49,39.541,18.7,49.241,34.069,5.835,9.241,6.235,20.835,6.5,31.005.7,25.908,3.359,49.208,16.225,73.382,19.876,37.359,51.57,71.825,87.484,100.058,31.322,24.618,75.99,53.549,121.48,35.8,34.878-13.638,57-42.587,84.1-63.927,30.162-23.766,67.455-39.78,108.413-47.6,39.843-7.589,83.544-12.713,104.542-44.968,7.2-11.065,14.729-25.388,17.429-37.637a321.308,321.308,0,0,1,19.083-59.414Z" transform="translate(1611.071 1261.135) rotate(180)" fill="rgba(0,0,0,0)" stroke="#c1c8d8" stroke-miterlimit="10" stroke-width="2"/>
      <path id="Shape-9" data-name="Shape" d="M709.924,298.7c8.217-41.891,9.125-85.572-29.029-118.587-17.807-15.4-40.316-26.346-63.078-36.26-16.745-7.295-34.041-13.448-46.549-25.408-11.588-11.074-20.4-23.931-31.585-35.294-14.2-14.646-31.856-27.682-52.3-38.607C437.55,18.241,376.929,5.94,318.932,1.673,290.857-.4,260.4-1.481,232.516,4.173c-26.932,5.454-53.564,14.079-78.324,24.135C101.553,49.666,55.93,80.944,22.857,120.488c-22.674,27.124-34.94,53.5-5.573,81.015,33.108,31.016,85.02,48.129,127.806,68.259,29.346,13.806,62.236,27.34,67.718,56.68,4.368,23.346,7.91,45.5,19.2,67.572,16.808,32.55,41.52,62.036,72.673,86.708,28.49,22.477,64.531,41.55,105.282,29.545,32.287-9.528,57.337-30.874,85.546-46.135,31.437-17.045,65.977-26.442,102.349-34,32.686-6.818,63.464-17.3,84.591-39.539a109.139,109.139,0,0,0,12.2-14.579c4.254-6.485,3.923-12.92,4.758-20.193C701.586,336.629,706.207,317.658,709.924,298.7Z" transform="translate(1577.786 1239.059) rotate(180)" fill="rgba(0,0,0,0)" stroke="#c1c8d8" stroke-miterlimit="10" stroke-width="2"/>
      <path id="Shape-10" data-name="Shape" d="M645.815,275.267c-.7-39.79-12.522-77.395-44.9-108.4-13.841-13.265-30.37-24.191-45.6-36.347-12.263-9.8-23.853-18.9-37.954-26.98-33.45-19.121-60.636-43.864-96.184-60.892C373.724,19.881,319.367,7.3,265.432,2.268,239.095-.19,211.889-1.05,185.242,1.727c-22.882,2.384-44.8,10.756-65.132,19.317C80.263,37.822,41.572,61.666,15.7,91.834-41.346,158.34,71.121,206.7,128.845,235.014c26.547,13.026,67.111,28.113,77.986,53.915,7.773,18.433,12.509,37.178,22.52,55.041,26.891,47.973,81.479,104.4,154.228,96.885,31.123-3.209,59.492-16.247,88.553-25,29.922-9.014,60.8-14.039,91.9-19.553,29.066-5.15,52.231-12.479,71-32.13,8.973-9.383,8.18-20.618,8.98-32.13C645.324,313.131,646.131,294.113,645.815,275.267Z" transform="translate(1545.545 1219.05) rotate(180)" fill="rgba(0,0,0,0)" stroke="#c1c8d8" stroke-miterlimit="10" stroke-width="2"/>
      <path id="Shape-11" data-name="Shape" d="M582.475,249.474c-11.684-60.06-55.09-125.628-118.915-160.507-75.069-41.03-156.4-75.583-246.1-85.512C175.88-1.151,130.326-3.417,91.087,11.644,61.223,23.1,26.535,40.221,10.1,64.3c-40.209,58.9,49.226,105.78,100.182,133.027,27.433,14.669,62.353,28.962,83.03,50.383,12,12.418,18.12,28.849,27.805,42.489,29.351,41.336,77.665,74.676,137.848,80.639,27.826,2.754,55.852-.653,83.473-3.362,28.269-2.771,56.892-4.277,84.983-8.141,22.426-3.089,48.854-8.32,57.114-27.747C594.949,307.1,587.245,274,582.475,249.474Z" transform="translate(1511.223 1198.355) rotate(180)" fill="rgba(0,0,0,0)" stroke="#c1c8d8" stroke-miterlimit="10" stroke-width="2"/>
      <path id="Shape-12" data-name="Shape" d="M521.774,221.888C504.73,165.422,468.637,110.343,407.962,76.634c-32.176-17.875-69.527-30.213-105.388-42.4C261.924,20.412,219.451,9.687,176.08,4.367,122.071-2.26,34.6-8.233,6.381,41.583-21.626,91.03,49.147,134.793,91,159.733c26.834,15.977,55.549,30.64,81.186,48.105,13.9,9.469,24.61,20.41,36.374,31.515,32.514,30.769,78.865,55.131,126.111,68.134,45.785,12.607,102.431,18.188,150.766,14.022,20.855-1.794,35.763-7.832,42.07-25.007C536.245,272.626,528.82,245.214,521.774,221.888Z" transform="translate(1478.976 1180.417) rotate(180)" fill="rgba(0,0,0,0)" stroke="#c1c8d8" stroke-miterlimit="10" stroke-width="2"/>
      <path id="Shape-13" data-name="Shape" d="M456.063,192.882c-16.932-49.716-53.449-95.123-106.726-124.964C289.622,34.468,212.73,15.881,142.052,6.429,104.485,1.409,23.077-12.2,3.93,26.753S40.14,104.1,72,125.235c38.668,25.611,80.357,50.339,122,73.318,36.17,19.979,74.778,40.406,113.968,55.835a479.1,479.1,0,0,0,68.794,21.354c17.528,4.007,39.817,9.984,58.194,7C481.3,275.21,464.161,216.653,456.063,192.882Z" transform="translate(1441.54 1166.619) rotate(180)" fill="rgba(0,0,0,0)" stroke="#c1c8d8" stroke-miterlimit="10" stroke-width="2"/>
      <path id="Shape-14" data-name="Shape" d="M385.8,162.817C348.647,68.8,230.94,22.56,117.608,6.439,91.272,2.7,17.449-10.791,2.726,17.93-11.543,45.777,33.828,78.8,55.067,94.448c65.815,48.482,147.124,84.43,224.177,120.042,24.051,11.116,67.427,35.239,97.263,24.111C408.895,226.495,393.494,182.313,385.8,162.817Z" transform="translate(1406.177 1151.442) rotate(180)" fill="rgba(0,0,0,0)" stroke="#c1c8d8" stroke-miterlimit="10" stroke-width="2"/>
      <path id="Shape-15" data-name="Shape" d="M307.18,127.476C274.871,58.238,180.9,18.527,94.5,5.433,73.339,2.23,19.593-7.744,3.566,11.578-11.267,29.451,24.13,55.349,37.368,65.64c29.482,22.916,64.421,41.795,98.938,59.941,31.915,16.789,64.172,34,97.756,48.2,17.687,7.474,50.859,23.422,70.961,11.882C326.668,173.247,314.353,142.851,307.18,127.476Z" transform="translate(1365.613 1134.198) rotate(180)" fill="rgba(0,0,0,0)" stroke="#c1c8d8" stroke-miterlimit="10" stroke-width="2"/>
      <path id="Shape-16" data-name="Shape" d="M215.322,88.618C190.7,43.4,124.744,14.041,66.565,4.284c-15.654-2.622-49.49-9.416-62.7,2.66C-8.288,18.064,11.306,34.367,20,41.9c38.543,33.373,94.983,63.183,146.7,81.492,13,4.6,36.374,13.638,49.75,4.346C230.168,118.2,220.978,99,215.322,88.618Z" transform="translate(1315.69 1115.568) rotate(180)" fill="rgba(0,0,0,0)" stroke="#c1c8d8" stroke-miterlimit="10" stroke-width="2"/>
      <path id="Shape-17" data-name="Shape" d="M114.671,46.171C100.8,23.719,64.528,6.78,34.487,1.384,13.345-2.41-12.069.868,6.356,20.412c18.305,19.4,52.269,37.112,81.055,44.965C109.373,71.365,126.587,65.457,114.671,46.171Z" transform="translate(1259.526 1092.115) rotate(180)" fill="rgba(0,0,0,0)" stroke="#c1c8d8" stroke-miterlimit="10" stroke-width="2"/>
      <path id="Shape-18" data-name="Shape" d="M671,352.761C671.888,308.4,701,262.3,686.625,217.106c-11.808-37.121-71.253-40.221-106.919-57.037-28.339-13.361-44.421-37.03-59.747-59.739-13.77-20.388-26.138-41.389-40.644-61.442C469.925,25.923,453.8.467,433.436.007c-19.5-.443-37.372,19.394-48.7,31.121-14.769,15.285-27.855,31.581-42.193,47.11-24.162,26.195-53.148,45.584-86.348,63.934q-56.663,31.321-115.2,60.5c-28.731,14.366-57.658,28.624-85.275,44.409C38.409,256.987.176,275.568,0,293.827c-.084,8.713,10.112,18.362,16.986,25.326,11.632,11.789,24.891,22.567,38.191,33.115,24.771,19.644,50.594,38.4,76.133,57.378,33.157,24.631,64.824,48.859,93.968,76.828,30.133,28.947,58.92,58.848,88.3,88.34,19.894,19.98,39.768,42.416,68.464,54.677,35.942,15.325,65.443-.834,101.792-1.022,31.268-.165,28.962-58.831,32.936-75.144,3.988-16.511,12.775-31.882,16.18-48.431,4.247-20.66,4.3-41.8,5.347-62.679,1.268-25.541,1.768-49.858,35.486-59.6,19.187-5.534,39.939-6.7,59.8-10.012C646.45,370.453,670.718,366.775,671,352.761Z" transform="translate(690.607 1243.198) rotate(180)" fill="rgba(0,0,0,0)" stroke="#c1c8d8" stroke-miterlimit="10" stroke-width="2"/>
      <path id="Shape-19" data-name="Shape" d="M621.3,330.382c3.277-37.186,22.64-84.773,4.33-123.155-15.644-32.8-64.568-37.052-97.511-54.281-27.2-14.212-39.3-37.467-52.9-60.313-10.906-18.327-21.483-36.83-33.863-54.571C432.241,24.987,418.309,2.914,399.34.208,382.282-2.225,364,17.262,354.423,27.176c-13.966,14.473-25.911,30.191-38.25,45.578-21.678,27.029-43.882,51.337-75.6,71.193-31.87,19.938-66.736,34.852-101.975,50.371C111.028,206.46,83.6,218.954,57.408,232.972,37.9,243.409,9.843,256.767.917,275.378-6.156,290.1,29.691,314.534,40.26,323.157c21.756,17.73,44.811,34.374,67.908,50.915,28.157,20.157,57.212,37.785,82.078,60.78,44.474,41.109,81.65,92.306,138.876,122.862,34.515,18.427,72.926,23.14,111.316,20.383,15.2-1.091,18.851-18.469,20.767-28.6,3.187-16.838,3.586-33.965,6.032-50.871,2.3-15.826,7.39-30.861,11.5-46.38,4.155-15.724,5.32-31.833,8.38-47.664,1.895-9.828,3.769-21.266,12.058-29.168,8.576-8.18,22.725-11.608,35.091-14.212C557.488,356.355,618.989,356.622,621.3,330.382Z" transform="translate(656.286 1228.71) rotate(180)" fill="rgba(0,0,0,0)" stroke="#c1c8d8" stroke-miterlimit="10" stroke-width="2"/>
      <path id="Shape-20" data-name="Shape" d="M549.509,296.19c5.512-34.131,13.229-76.641-9.226-108.086-18.355-25.712-57.5-31.258-85.462-48.012C431.565,126.16,422.78,104,411.242,83.412c-9.472-16.889-18.994-33.853-30.474-49.925C372.061,21.3,360.84,4.773,343.553.521c-14.78-3.633-31.479,12.643-39.672,20.744-13.953,13.807-25.328,29.277-36.625,44.543-18.481,24.979-35.487,51.662-61.791,71.98-25.559,19.717-55.92,31.355-86.851,44.44-23.691,10.026-47.235,20.438-69.557,32.393-17.14,9.176-38.379,20.046-47.312,35.312C-5.978,263.1,13.851,278.682,23.758,287.97c16.36,15.328,34.519,29.39,52.42,43.509C95.5,346.711,116.9,360.762,135.6,376.368c39.322,32.839,70.736,69.2,119.2,94.365,31.385,16.3,73.621,31.1,110.724,28.442,26.682-1.919,24.927-49.731,27.49-65.008,4.213-24.979,12.351-51.224,25.274-74.233,11.1-19.717,37.482-25.8,61.749-30.218,15.2-2.776,31.135-4.277,45.838-8.567C542.9,316.174,547.2,310.5,549.509,296.19Z" transform="translate(604.275 1210.083) rotate(180)" fill="rgba(0,0,0,0)" stroke="#c1c8d8" stroke-miterlimit="10" stroke-width="2"/>
      <path id="Shape-21" data-name="Shape" d="M467.617,256.735c3.281-28.856,2.544-62.978-18.715-87.939-18.631-21.864-51.8-27.62-75.393-44.843C355.1,110.515,347.865,88.6,337.964,70.835,325.862,49.108,308.9,8.979,278.376.8,249.982-6.8,220.279,41.757,210,56.236c-16.276,22.917-29.889,48.049-49.629,69.213-17,18.22-39.776,28.292-63.952,39.117-30.824,13.824-77.62,30.218-94.1,57.159-12.284,20.076,27.666,49.922,41.3,63.832,14.267,14.531,25.012,31.754,39.731,45.772,23.233,22.12,60.881,39.93,91.964,53.521,30.224,13.22,69.466,27.852,103.747,26.981,22.531-.569,26.817-28.742,31.624-42.5,6.887-19.564,16.044-37.094,35.715-50.4,20.021-13.545,43.621-19.928,68.428-25.514,12.734-2.847,27.26-5.067,38.652-10.818C466.065,276.338,466.353,267.826,467.617,256.735Z" transform="translate(540.838 1186.626) rotate(180)" fill="rgba(0,0,0,0)" stroke="#c1c8d8" stroke-miterlimit="10" stroke-width="2"/>
      <path id="Shape-22" data-name="Shape" d="M383.764,212.507c-.182-24.929-7.222-51.513-28.1-70.742-17.386-16.017-44.6-21.371-61.243-37.745C281.241,91.056,274.531,72.858,265.7,57.8,254.91,39.356,239.647,7.129,212.8.727c-26.2-6.233-49.37,29.263-59.415,43.309C138.679,64.631,126.77,86.461,111.927,107c-11.628,16.113-25.848,26.5-44.782,36.884-22.226,12.2-53.237,25.711-65.108,45.893-8.56,14.612,12.16,37.96,19.683,50.833,5.043,8.646,9.66,17.428,12.2,26.8,1.976,7.3,2.172,14.051,7.894,20.318,14.406,15.76,46,17.818,67.433,23.014,28.468,6.895,58.673,14.731,88.465,16.226,18.31.935,27.655-12.725,38.106-22.334,12.35-11.36,29.833-19.53,45.1-28.1,20.153-11.332,42.085-18.38,64.775-25.6,10.234-3.258,22.257-6.453,30.184-12.929C384.156,231.289,383.827,221.5,383.764,212.507Z" transform="translate(479.469 1159.03) rotate(180)" fill="rgba(0,0,0,0)" stroke="#c1c8d8" stroke-miterlimit="10" stroke-width="2"/>
      <path id="Shape-23" data-name="Shape" d="M312.306,170.8a89.74,89.74,0,0,0-33.939-55.749c-14.6-11.363-33.987-17.761-45.7-31.415-10.921-12.727-18.526-27.2-27.543-40.806C195.577,28.445,181.4,4.4,159.388.486c-23.722-4.216-41.995,20.039-52.114,33.483C94.492,50.957,84.78,69.235,73.351,86.808a155.438,155.438,0,0,1-32.582,35.539C27.143,133.375,8.668,143.941,1.774,159.1c-6.094,13.432,5.3,29.682,7.321,43.3,2.153,14.551-1.619,29.835,10.314,42.329,24.609,25.767,86.378,20.989,121.69,21.54,34.842.568,62.856-15.2,91.051-30.2,18.624-9.9,38.019-18.289,57.113-27.517C308.729,199.142,315.488,189.227,312.306,170.8Z" transform="translate(431.627 1132.124) rotate(180)" fill="rgba(0,0,0,0)" stroke="#c1c8d8" stroke-miterlimit="10" stroke-width="2"/>
      <path id="Shape-24" data-name="Shape" d="M261.244,132.6c-10.7-30.332-44.119-46.454-68.008-69.376C173.689,44.461,159.032,5.6,126.112.458,88.736-5.377,66.362,46.115,53.367,65.984c-14.419,22.035-40.1,39.96-50.776,63.286-5.616,12.243-.793,23.668,2.2,35.905,3.276,13.443,5.738,27.179,17.049,37.995,22.264,21.285,65.739,21.136,97.056,21.722,32.415.609,61.091-13.977,86.918-28.535C233.2,180.94,272.2,163.71,261.244,132.6Z" transform="translate(402.507 1105.911) rotate(180)" fill="rgba(0,0,0,0)" stroke="#c1c8d8" stroke-miterlimit="10" stroke-width="2"/>
      <path id="Shape-25" data-name="Shape" d="M218.362,99.54c-12.056-21.61-37.393-39.179-57.952-55.765C143.249,29.948,124.791,2.114,98.63.13,67.879-2.209,49.243,27.512,37.144,45.739,25.235,63.644,8.076,82.553,1.482,102.208c-6.876,20.474,11.436,48.051,28.9,62.539,19.477,16.153,51.343,22.122,78.687,21.478,28.629-.655,54.9-14,76.58-27.857C208.827,143.564,232.383,124.627,218.362,99.54Z" transform="translate(377.546 1081.071) rotate(180)" fill="rgba(0,0,0,0)" stroke="#c1c8d8" stroke-miterlimit="10" stroke-width="2"/>
      <path id="Shape-26" data-name="Shape" d="M175.728,75.465c-11.517-17.974-31.48-33.179-49.887-46.742C111.636,18.252,90.676.447,70.182.011,47.636-.472,28.529,14.474,19.567,29.793,10.733,44.9,1.423,63.845.1,80.42c-2.875,36.1,55.6,76.532,99.509,73.239C141.24,150.536,198.691,111.281,175.728,75.465Z" transform="translate(351.542 1061.065) rotate(180)" fill="rgba(0,0,0,0)" stroke="#c1c8d8" stroke-miterlimit="10" stroke-width="2"/>
      <path id="Shape-27" data-name="Shape" d="M137.47,57.615C121.582,34.2,82.99.809,47.263.016,6.253-.89-4.043,36.263,1.3,63.188c5.43,27.479,52.712,67.255,90.412,61.88C128.512,119.824,156.3,85.389,137.47,57.615Z" transform="translate(328.662 1045.197) rotate(180)" fill="rgba(0,0,0,0)" stroke="#c1c8d8" stroke-miterlimit="10" stroke-width="2"/>
      <path id="Shape-28" data-name="Shape" d="M103.552,44.861C90.1,25.253,61.4.761,31.457.018c-35.674-.877-35,30.494-26.911,50.014,8.412,20.27,45.459,54.893,76.695,49.427C111.614,94.123,116.443,63.655,103.552,44.861Z" transform="translate(310.982 1036.23) rotate(180)" fill="rgba(0,0,0,0)" stroke="#c1c8d8" stroke-miterlimit="10" stroke-width="2"/>
      <path id="Shape-29" data-name="Shape" d="M71.728,32.255C62.849,18.264,40.63.579,19.5.014-6.321-.667-1.3,24.213,5.37,36.221,13.3,50.509,39.882,75.337,62.188,71.314,84.15,67.353,79.054,43.783,71.728,32.255Z" transform="translate(293.3 1025.88) rotate(180)" fill="rgba(0,0,0,0)" stroke="#c1c8d8" stroke-miterlimit="10" stroke-width="2"/>
      <path id="Shape-30" data-name="Shape" d="M308.968,401.871c57.154,28.071,121.764,51.243,182.693,74.8,89.038,34.411,179.388,67.9,272.945,93.535,50.159,13.743,115.156,33.553,168.977,22.788,19.678-3.932,37.624-15.836,55.266-23.569,24.329-10.663,49.016-20.8,73.661-30.956,49.437-20.361,99.028-40.518,147.616-62.185,23.4-10.436,46.1-23.58,70.455-32.483,14.234-5.207,31.267-2.771,46.476-2.442,35.231.767,70.441,2.22,105.65,3.458,43.067,1.51,86.232,3.117,129.348,2.521,19.449-.276,67.073,2.521,77.779-11.038,5.76-7.3-7.815-20.469-14.107-26.561-11.554-11.2-24.834-21.286-37.939-31.274-30.306-23.1-62.492-45.094-89.431-70.895-13.841-13.263-31.976-29.468-22.94-47.575,9.12-18.288,24.918-34.124,34.557-52.35,11.1-20.973,15.705-42.8,20.941-65.04,3.879-16.438,12.916-31,21.411-46.154,9.387-16.75,19.109-33.642,25.627-51.306,4.307-11.668,11.26-32.659-3.81-40.047-21.411-10.5-61.56-2-85.966,1.1-33.729,4.27-67.214,9.709-100.853,14.393-24.42,3.407-48.925,7.143-73.752,7.541-40.022.642-80.178-1.578-120.095-3.645-73.914-3.827-147.3-9.016-221.459-9.016-64.974,0-215.124,60.849-250.271,71.564-70.153,21.387-142.172,41.664-208.558,70.122-17.959,7.7-45.6,17.971-55.049,33.829-5.83,9.772-3.15,15.421-16.9,21.718-18.759,8.591-42.794,11.964-63.559,15.808-33.442,6.189-67.144,11.43-100.74,17.034-67.948,11.3-135.436,24.091-203.1,36.394-20.456,3.719-45.207,4.542-64.709,11.095-12.571,4.208-11.267,9.5-1.536,15.9,17.069,11.22,40.99,17.448,61.156,23.847,29.538,9.374,59.567,17.738,89.606,25.982s60.234,16.233,90.288,24.491C268.49,388.689,291.128,393.11,308.968,401.871Z" transform="translate(1745.234 596.073) rotate(180)" fill="rgba(0,0,0,0)" stroke="#c1c8d8" stroke-miterlimit="10" stroke-width="2"/>
      <path id="Shape-31" data-name="Shape" d="M224.966,372.239c60.457,28.129,127.566,50.537,192.261,72.4,82.8,28,167.47,54.239,254.713,71.741,51.219,10.269,111.659,21.607,163.994,9.831,18.671-4.2,32.621-13.646,48.626-21.982C902.8,494.716,921.749,486,940.7,477.42q58.5-26.492,118.233-51.174c21.093-8.751,44.307-20.47,68.14-23.506,18.946-2.415,40.466,1.08,59.492,2.1,34.27,1.831,68.533,3.719,102.817,5.322,39.561,1.848,79.234,3.554,118.88,3.258,22.1-.165,60.029,2.559,75.656-9,13.633-10.087-36-46.568-44.732-53.5-27.26-21.641-55.931-42.247-81.3-65.389-14.995-13.646-33.253-30.244-39.575-48.332-5.381-15.415,5-32.977,11.136-47.228,7.67-17.848,13.858-36.351,22.769-53.824,7.936-15.568,20.567-29.437,31.66-43.589,12.2-15.568,24.559-31.39,33.617-48.376,5.55-10.451,14.736-27.953,3.7-37.914-12.743-11.485-52.022-3.98-68.168-2.346-32.755,3.366-65.256,8.37-97.786,12.851-54.03,7.437-105.54,13.942-160.559,12.384-71.648-2.036-143.227-6.823-214.862-9.473-26.453-.989-53.327-2.98-79.8-1.9-15.178.621-26.73,4.373-35.561,12.839C752.4,42.169,724.63,48.565,705.319,55.2c-30.109,10.331-60.6,19.938-91.006,29.675-66.745,21.379-134.772,41.986-198.071,69.637-20.025,8.745-42.955,18.5-57.77,32.945-8.265,8.057-6.182,15.819-11.227,24.382-6.68,11.264-28.643,16.351-41.771,20.032-25.338,7.119-51.714,11.89-77.887,16.359C168.366,258.334,109,264.981,48.82,269.877c-14.1,1.137-69.642,5.078-40.473,24.069,32.238,20.992,78.774,31.272,116.714,43.1C159.24,347.681,193.446,357.574,224.966,372.239Z" transform="translate(1614.199 572.616) rotate(180)" fill="rgba(0,0,0,0)" stroke="#c1c8d8" stroke-miterlimit="10" stroke-width="2"/>
      <path id="Shape-32" data-name="Shape" d="M158.733,331.161c56.827,24.747,119.78,43.208,180.983,60.87,74.268,21.431,150.394,40.534,228.3,51.236,48.928,6.716,102.876,11.877,151.477.715,33.19-7.619,58.868-28.217,88.015-42.385a887.212,887.212,0,0,1,90.72-38.559c19.387-6.88,40.242-13.813,61.814-12.9,52.451,2.2,104.839,7.451,157.346,10,34.738,1.7,69.541,3.1,104.381,2.685,21.009-.25,49.873.772,68.474-8.175,20.56-9.9-88.914-94.382-99.261-103.891-25.942-23.844-57.354-55.488-52.338-89.4,4.8-32.416,25.586-56.618,49.107-82.017,13.346-14.449,56.146-53.047,40.285-71.838-9.061-10.741-38.929-7.022-53.119-6.29-27.964,1.442-55.774,4.542-83.59,7.233-40.563,3.9-82.234,9.923-122.969,11.689-28.365,1.226-56.9-.414-85.311-.448-40.742-.046-81.482.207-122.224.5-34.209.25-68.7,0-102.794,2.657-21.193,1.635-37.278,5.308-52.479,15.686C592.32,47.557,572.368,52.842,555.5,58.582c-27.845,9.475-56.055,18.257-84.173,27.182-58.868,18.689-118.417,36.986-174.766,60.342-25.723,10.656-68.972,25.575-75.006,51.412-2.178,9.314-3.78,13.341-15.018,18.638-15.953,7.52-35.059,10.906-52.956,13.853-41.724,6.869-84.662,5.842-126.312,12.631-16.964,2.8-39.107,8.839-19.746,22.669,22.6,16.174,55.493,25.065,82.564,35.056,13.515,4.985,27.437,9.651,40.27,15.737C140.217,320.788,148.653,326.8,158.733,331.161Z" transform="translate(1464.415 536.739) rotate(180)" fill="rgba(0,0,0,0)" stroke="#c1c8d8" stroke-miterlimit="10" stroke-width="2"/>
      <path id="Shape-33" data-name="Shape" d="M110.352,286.183c52.5,20.1,109.519,34.713,165.514,47.887,62.2,14.613,125.888,26.718,190.424,31.868,44.563,3.568,92.046,4.622,135.294-6.3,27.354-6.909,45.9-21.437,69.431-33.62,35.522-18.415,73.955-33.006,116.63-29.455q71.765,5.958,144,8.94c29.049,1.2,58.211,2.1,87.294,1.263,18.388-.524,42.079-1.405,58.076-8.149,21.4-9.031-59-77.752-69.018-87.767-24.858-24.836-43.076-50.9-53.722-81.678-8.683-25.112,9.054-44.854,27.354-63.639,11.375-11.666,48.133-41.007,36.623-56.158-6.312-8.354-27.114-7.921-38.285-8.348-21.292-.808-42.676.034-63.964.4C884.567,2,851.1-1.908,819.925,1.239c-69.088,6.968-138,13-207.516,17.772-38.32,2.629-76.873,5.019-114.85,10.09-13.634,1.821-27.717,3.75-40.635,7.87-8.311,2.646-12.842,7.153-19.855,10.852C403.631,65.43,359.98,74.49,322.319,85.774c-50.068,15-100.4,29.768-149.137,47.488-25.634,9.321-61.436,20.031-79.075,39.055-5.33,5.748-3.058,10.348-6.41,15.871-3.858,6.373-15.576,8.274-23.144,10.05-17.176,4.035-89.069,10.135-55.938,33.805,15.809,11.273,35.95,18.506,53.772,27.366,6.448,3.209,12.743,6.436,18.122,10.767C89.5,277.436,98.366,281.579,110.352,286.183Z" transform="translate(1308.403 499.488) rotate(180)" fill="rgba(0,0,0,0)" stroke="#c1c8d8" stroke-miterlimit="10" stroke-width="2"/>
      <path id="Shape-34" data-name="Shape" d="M105.434,254.022c103.644,32.521,225.111,54.675,338.109,50.383,37.577-1.433,78.005-6.214,110.581-22.575,19.207-9.664,34.557-20.574,57.627-24.065,16.656-2.518,34.591.341,51.344,1.376q36.4,2.251,72.85,3.928c30.128,1.325,60.354,2.346,90.538,1.8,21.568-.393,51.351.051,70.087-9.329,22.369-11.188-34.569-63.672-42.58-73.024-19.418-22.668-33.031-44.628-37.949-71.944-1.448-7.959-6.325-16.117-5.692-24.139.661-8.192,6.895-15.486,12.649-21.927,7.527-8.442,33.642-28.465,26.164-38.761-4.132-5.685-19.643-6.4-27.682-7.607-15.081-2.277-30.38-3.5-45.555-5.3C750.182,9.757,724.622-.277,698.789.006,629.321.756,558.847,18.2,490.769,27.777c-40.472,5.714-81.219,10.9-121.2,18.636-12.65,2.451-25.679,4.986-37.7,9.141-8.391,2.9-13.781,8.067-21.555,11.314-29.8,12.467-64.079,20.034-96.083,28.424-41.548,10.915-83.236,21.5-124.5,33.121C63.87,135.7,30.616,142.1,8.33,155.61c-16.276,9.866-5.151,12.814,3.432,22,4.385,4.684,3.373,9.3,5.277,14.6,2.724,7.575,10.415,13.027,17.625,17.93,9.944,6.771,23.194,12.349,31.323,20.648,2.867,2.922,2.733,6.549,5.053,9.1C77.787,247.305,95.689,250.967,105.434,254.022Z" transform="translate(1188.803 476.032) rotate(180)" fill="rgba(0,0,0,0)" stroke="#c1c8d8" stroke-miterlimit="10" stroke-width="2"/>
      <path id="Shape-35" data-name="Shape" d="M149.063,216.91C233.184,237.354,326.778,249,415.7,243.593c30.937-1.882,62.063-6.255,90.881-15.861,13.111-4.356,22.953-9.213,37.321-9.474,33.336-.6,66.773,1.507,100.107,2.013,23.852.364,47.822.495,71.618-1.058,15.913-1.035,37.426-2.277,50.46-10.174,18.941-11.5-15.251-50.614-22.21-61.419C732.34,129.7,720.9,109.78,725.473,89.048c1.4-6.341,3.887-11.943,4.209-18.409.312-5.556-.554-10.686,1.88-16,3.01-6.586,16.395-16.8,11.792-22.867-3.136-4.139-12.438-4.333-18.626-5.657a218.48,218.48,0,0,1-29.3-8.428c-9.962-3.663-18.443-9.321-28.762-12.349C649.919.438,631.168-.022,613.559,0,543.3.092,472.154,11.315,403.678,23.043c-35.658,6.108-71.513,12.62-106.168,21.884-10.522,2.815-22.449,5.641-31.7,10.839-5.773,3.236-9.688,7.291-16.247,9.728-56.031,20.78-120.808,28.5-180.29,43.5-15.482,3.907-101.285,23.646-56.423,42.214C40.1,162.5,68.9,167.625,93.766,183.06c7.577,4.691,12.628,8.576,15.588,15.736,1.95,4.766-2.743,2.346,3.809,7.33C121.114,212.11,139.265,214.527,149.063,216.91Z" transform="translate(1122.235 450.502) rotate(180)" fill="rgba(0,0,0,0)" stroke="#c1c8d8" stroke-miterlimit="10" stroke-width="2"/>
      <path id="Shape-36" data-name="Shape" d="M154.363,177.918c98.484,16.687,202.779,17.481,302.818,2.691,25.219-3.725,51.465-2.835,76.993-3.782,24.8-.907,68.9.981,86.92-14.459,13.063-11.193-1.112-34.978-6.015-47.5-6.247-15.95-11.706-32.425-1.449-47.919,6.008-9.072,14.239-17.708,20.682-26.7,3.081-4.293,9.426-10.87,6.781-14.936-4.376-6.708-24.846-9.532-34.779-12.694C574.568,2.509,540.95-.068,507.007,0,444.315.132,381.3,7.072,319.8,16.484c-28.29,4.332-56.98,8.954-84.268,16.483C220.094,37.225,208.7,45.442,193.96,50.313c-47.476,15.7-98.484,24.082-146.777,38.433C33.205,92.9-19.006,106.738,7.3,123.051c25.465,15.792,62.612,13.915,89.086,28.769,3,1.7,6.7,3.736,8.441,6.485,1.027,1.644-.781,4.774,0,5.71C112.953,174.187,141.867,175.8,154.363,177.918Z" transform="translate(1040.071 423.599) rotate(180)" fill="rgba(0,0,0,0)" stroke="#c1c8d8" stroke-miterlimit="10" stroke-width="2"/>
      <path id="Shape-37" data-name="Shape" d="M123.522,144.119c50.526,5.611,102.162,7,153.538,7.356,28.082.194,58.937,1.642,86.414-4.116,16.879-3.546,33.178-6.647,50.582-8.882,18.721-2.406,48.866-4.156,60.266-17.194,8.517-9.743,2.679-29.771,2.37-41.618-.331-12.993,2.961-22.629,14.292-31.926,7.124-5.855,39.807-27.109,36.03-33.237-3.593-5.838-26.367-6.733-36.213-8.25C459.68,1.439,428.144-.234,396.488.026a1092.43,1092.43,0,0,0-146.5,11.4c-19.953,2.891-40.573,5.883-59.632,11.659-12.836,3.894-23.54,10.8-36.29,14.822C117.552,49.454,78.941,57.3,42.3,69.049,30.538,72.829-7.778,82.891,1.408,98.4c7.659,12.947,33.709,16.884,46.509,25.564C69.691,138.762,95.756,141.042,123.522,144.119Z" transform="translate(945.424 400.831) rotate(180)" fill="rgba(0,0,0,0)" stroke="#c1c8d8" stroke-miterlimit="10" stroke-width="2"/>
      <path id="Shape-38" data-name="Shape" d="M77.346,115.3c40.356,3.626,81.036,5.436,121.76,5.417,26.246.051,53.935.341,79.69-4.435,12.937-2.4,24.18-8,36.423-12,12.608-4.111,30.007-8.7,35.457-18.126,5.12-8.859,3.208-21.784,7.7-32.465,4-9.478,12.37-15.332,21.385-21.738,5.743-4.095,35.24-21.818,31.826-25.733-3.657-4.191-21.37-3.85-30.588-4.429C355.633.163,330.128-.355,304.654.236,269.9,1.1,234.875,3.507,200.721,8.959c-24.234,3.863-42.5,13.061-65.093,19.808-29.264,8.762-59.58,15.69-88.565,25.276C32.623,58.821,11.245,64.965,3.848,77.294,1,82.018-1.756,94.035,1.41,98.759c3.8,5.679,17.96,8.086,24.641,9.546C42.793,111.945,60.312,113.717,77.346,115.3Z" transform="translate(867.419 379.447) rotate(180)" fill="rgba(0,0,0,0)" stroke="#c1c8d8" stroke-miterlimit="10" stroke-width="2"/>
      <path id="Shape-39" data-name="Shape" d="M63.93,91.735c50.1,4.564,106.711,8.438,156.966-.747,20.309-3.708,40.535-14.695,48.816-29.666,4.291-7.742,5.214-16.956,11.622-24.459,4.746-5.545,10.783-10.555,16.738-15.222,3.354-2.636,24.845-17.076,20.7-19.655C314.394-.735,303.66.155,296.328.087q-26.391-.2-52.7,1.461C223.5,2.789,202.9,4.4,183.378,8.759c-15.746,3.537-30.093,10.983-45.426,15.4C97.644,35.872,55.166,45.047,17.323,62.386c-8.051,3.686-23.972,9.2-14.3,17.533C15.058,90.3,48.45,90.332,63.93,91.735Z" transform="translate(816.455 364.954) rotate(180)" fill="rgba(0,0,0,0)" stroke="#c1c8d8" stroke-miterlimit="10" stroke-width="2"/>
      <path id="Shape-40" data-name="Shape" d="M45.2,71.094c35.674,3.2,75.253,4.7,111.071-1.887,18.139-3.332,34.322-10.273,42.22-23.707,5.653-9.576,7.176-20.262,14.9-29.464,2.734-3.247,12.782-12.357,7.83-14.346-10.6-4.277-34.257.646-48.961,2.89C150.131,7.98,131.653,17.5,110.61,23.142,78.333,31.794,37.434,36.418,8.019,51.166-20.331,65.428,34.791,70.159,45.2,71.094Z" transform="translate(754.051 352.539) rotate(180)" fill="rgba(0,0,0,0)" stroke="#c1c8d8" stroke-miterlimit="10" stroke-width="2"/>
      <path id="Shape-41" data-name="Shape" d="M25.67,49.484c30.266,2.875,84.105,4.295,101.375-18.834,3.2-4.295,12.051-28,3.5-30.12-7.046-1.737-18.106,1.131-26.067,3.814C89.67,9.306,75.773,14.715,60.47,18.812,47.44,22.3,34.1,25.511,21.238,29.563c-5.457,1.7-15.715,3.762-19.139,7.631C-7.117,47.606,16.454,48.613,25.67,49.484Z" transform="translate(693.727 338.744) rotate(180)" fill="#01002d" stroke="#c1c8d8" stroke-width="2"/>
    </g>
  </g>
</svg>
