<svg id="Layer_1" enable-background="new 0 0 450 450" viewBox="0 0 450 450" xmlns="http://www.w3.org/2000/svg"><g><g><path d="m424.7 338h-398.9c-11.4 0-20.6-9.2-20.6-20.6v-283.8c0-11.3 9.3-20.6 20.6-20.6h398.9c11.4 0 20.6 9.2 20.6 20.6v283.8c0 11.4-9.2 20.6-20.6 20.6zm-398.9-315c-5.8 0-10.6 4.8-10.6 10.6v283.8c0 5.9 4.8 10.6 10.6 10.6h398.9c5.9 0 10.6-4.8 10.6-10.6v-283.8c0-5.8-4.8-10.6-10.6-10.6z"/></g><g><path d="m413.5 311.2h-376.5c-2.8 0-5-2.2-5-5v-261.4c0-2.8 2.2-5 5-5h376.4c2.8 0 5 2.2 5 5v261.4c.1 2.8-2.2 5-4.9 5zm-371.5-10h366.4v-251.4h-366.4z"/></g><g><path d="m169.4 409.7c-1.3 0-2.7-.5-3.7-1.6-1.9-2-1.8-5.2.3-7.1 32.1-29.8 18.8-64.7 18.2-66.2-1-2.6.2-5.5 2.8-6.5s5.5.2 6.5 2.8c.2.4 4.3 10.9 3.8 25.6-.5 13.6-5.1 33.5-24.5 51.6-1 1-2.2 1.4-3.4 1.4z"/></g><g><path d="m281.1 409.7c-1.2 0-2.4-.4-3.4-1.3-19.4-18-24-38-24.5-51.6-.5-14.7 3.6-25.2 3.8-25.6 1-2.6 3.9-3.8 6.5-2.8s3.8 3.9 2.8 6.5c-.6 1.5-13.8 36.4 18.2 66.2 2 1.9 2.1 5 .3 7.1-1 1-2.3 1.5-3.7 1.5z"/></g><g><path d="m325.6 438.5h-200.7c-2.8 0-5-2.2-5-5v-14.4c0-10.7 8.7-19.4 19.4-19.4h171.9c10.7 0 19.4 8.7 19.4 19.4v14.4c0 2.7-2.2 5-5 5zm-195.7-10h190.7v-9.4c0-5.2-4.2-9.4-9.4-9.4h-171.9c-5.2 0-9.4 4.2-9.4 9.4z"/></g><g><path d="m134.3 245.9c-.9 0-1.8-.2-2.6-.7l-57.6-34.5c-1.5-.9-2.4-2.5-2.4-4.3v-65.3c0-1.8 1-3.5 2.5-4.4s3.5-.9 5 .1l57.6 34.5c1.5.9 2.4 2.5 2.4 4.3v65.3c0 1.8-1 3.5-2.5 4.4-.7.4-1.6.6-2.4.6zm-52.6-42.3 47.6 28.5v-53.7l-47.6-28.5z"/></g><g><path d="m134.3 245.9c-.9 0-1.7-.2-2.5-.6-1.6-.9-2.5-2.5-2.5-4.4v-65.3c0-1.8.9-3.4 2.4-4.3l57.6-34.5c1.5-.9 3.5-.9 5-.1 1.6.9 2.5 2.6 2.5 4.4v65.3c0 1.8-.9 3.4-2.4 4.3l-57.6 34.5c-.7.5-1.6.7-2.5.7zm5-67.5v53.7l47.6-28.5v-53.7z"/></g><g><path d="m76.7 146.1c-1.8 0-3.5-.9-4.4-2.6-1.3-2.4-.4-5.5 2-6.8l57.6-31c1.5-.8 3.3-.8 4.7 0l57.6 31c2.4 1.3 3.3 4.3 2 6.8s-4.3 3.3-6.8 2l-55.2-29.7-55.2 29.7c-.7.4-1.5.6-2.3.6z"/></g><g><g><path d="m177.5 90.7h-86.4c-2.8 0-5-2.2-5-5s2.2-5 5-5h86.4c2.8 0 5 2.2 5 5s-2.2 5-5 5z"/></g><g><path d="m163 105.2c-1.3 0-2.6-.5-3.5-1.5-1.9-1.9-1.9-5.1 0-7.1l11-11-11-11c-1.9-1.9-1.9-5.1 0-7.1s5.1-1.9 7.1 0l14.4 14.7c1.9 1.9 1.9 5.1 0 7.1l-14.5 14.5c-1 .9-2.2 1.4-3.5 1.4z"/></g><g><path d="m105.6 105.2c-1.3 0-2.6-.5-3.5-1.5l-14.5-14.5c-1.9-1.9-1.9-5.1 0-7.1l14.5-14.5c1.9-1.9 5.1-1.9 7.1 0 1.9 1.9 1.9 5.1 0 7.1l-11 11 11 11c1.9 1.9 1.9 5.1 0 7.1-1 .9-2.3 1.4-3.6 1.4z"/></g></g><g><g><path d="m177.5 270.4h-86.4c-2.8 0-5-2.2-5-5s2.2-5 5-5h86.4c2.8 0 5 2.2 5 5s-2.2 5-5 5z"/></g><g><path d="m163 284.9c-1.3 0-2.6-.5-3.5-1.5-1.9-2-1.9-5.1 0-7.1l11-11-11-11c-1.9-2-1.9-5.1 0-7.1s5.1-2 7.1 0l14.5 14.5c1.9 2 1.9 5.1 0 7.1l-14.5 14.5c-1.1 1.1-2.3 1.6-3.6 1.6z"/></g><g><path d="m105.6 284.9c-1.3 0-2.6-.5-3.5-1.5l-14.5-14.5c-1.9-2-1.9-5.1 0-7.1l14.5-14.5c1.9-2 5.1-2 7.1 0 1.9 2 1.9 5.1 0 7.1l-11 11 11 11c1.9 2 1.9 5.1 0 7.1-1 .9-2.3 1.4-3.6 1.4z"/></g></g><g><path d="m249 284.9h-16.7c-7.3 0-13.3-5.9-13.3-13.2v-157.5c0-2.8 2.2-5 5-5h33.2c2.8 0 5 2.2 5 5v157.4c.1 7.3-5.9 13.3-13.2 13.3zm-19.9-165.7v152.4c0 1.8 1.5 3.2 3.3 3.2h16.6c1.8 0 3.2-1.5 3.2-3.2v-152.4z"/></g><g><path d="m257.3 119.2c-2 0-3.9-1.2-4.7-3.2l-11.9-30.9-11.9 30.9c-1 2.6-3.9 3.9-6.5 2.9s-3.9-3.9-2.9-6.5l16.6-43c.7-1.9 2.6-3.2 4.7-3.2s3.9 1.3 4.7 3.2l16.6 43c1 2.6-.3 5.5-2.9 6.5-.6.2-1.2.3-1.8.3z"/></g><g><path d="m257.3 255.4h-33.2c-2.8 0-5-2.2-5-5s2.2-5 5-5h33.2c2.8 0 5 2.2 5 5s-2.3 5-5 5z"/></g><g><g><path d="m373.8 89.3h-86.8c-2.8 0-5-2.2-5-5s2.2-5 5-5h86.8c2.8 0 5 2.2 5 5s-2.2 5-5 5z"/></g><g><path d="m373.8 119.7h-86.8c-2.8 0-5-2.2-5-5s2.2-5 5-5h86.8c2.8 0 5 2.2 5 5s-2.2 5-5 5z"/></g><g><path d="m373.8 150.1h-86.8c-2.8 0-5-2.2-5-5s2.2-5 5-5h86.8c2.8 0 5 2.2 5 5s-2.2 5-5 5z"/></g><g><path d="m373.8 180.5h-86.8c-2.8 0-5-2.2-5-5s2.2-5 5-5h86.8c2.8 0 5 2.2 5 5s-2.2 5-5 5z"/></g><g><path d="m373.8 210.9h-86.8c-2.8 0-5-2.2-5-5s2.2-5 5-5h86.8c2.8 0 5 2.2 5 5s-2.2 5-5 5z"/></g><g><path d="m373.8 241.3h-86.8c-2.8 0-5-2.2-5-5s2.2-5 5-5h86.8c2.8 0 5 2.2 5 5s-2.2 5-5 5z"/></g><g><path d="m373.8 271.7h-86.8c-2.8 0-5-2.2-5-5s2.2-5 5-5h86.8c2.8 0 5 2.2 5 5s-2.2 5-5 5z"/></g></g></g></svg>