<svg xmlns="http://www.w3.org/2000/svg" width="114.7" height="98.703" viewBox="0 0 114.7 98.703">
  <g id="Group_70525" data-name="Group 70525" transform="translate(-108.572 -2556.607)">
    <g id="Abstract" transform="translate(109 -492.393)">
      <path id="Vector" d="M35.589,12.9a1.7,1.7,0,0,0-1.37-1.155L23.95,10.251,19.358.946a1.7,1.7,0,0,0-3.043,0l-4.592,9.305L1.453,11.743a1.7,1.7,0,0,0-.94,2.894l7.431,7.243L6.189,32.109A1.7,1.7,0,0,0,8.651,33.9l9.185-4.829L27.021,33.9a1.7,1.7,0,0,0,2.462-1.789L27.729,21.881l7.431-7.243a1.7,1.7,0,0,0,.429-1.74Z" transform="translate(81.161 3049) rotate(21.844)" fill="#2aa1f5"/>
      <path id="Vector-2" data-name="Vector" d="M79.21,68.871c-4.261-7.057-8.787-13.98-13.048-21.036-.8-1.331-3.062-.8-2.929.8,0,3.062.133,5.991.133,9.054-2.13-2.263-2.663-4.927-3.062-8.122-.266-1.331-.8-2.8-2.263-3.2-2.263-.666-4.793,1.6-6.524,2.8-4.394,3.062-8.388,6.657-13.181,9.187-5.592,2.8-5.725-1.2-4.527-5.592a54.552,54.552,0,0,1,5.725-13.447c4.261-7.19,9.187-14.646,10.385-23.034.666-4.66-1.731-11.717-7.589-11.45-7.19.266-15.445,5.592-20.1,10.918C19.561,18.41,4.383,38.382,2.918,26.931,1.853,18.543,8.777,8.291,12.9,1.368A.914.914,0,0,0,11.439.3,57.347,57.347,0,0,0,.256,22.937c-.932,4.394.533,12.515,6.923,10.785,7.456-2,12.382-10.385,17.176-15.977,2.929-3.595,7.589-6.258,11.583-8.388,8.521-4.527,12.382,2.13,10.252,9.853-2.663,9.453-9.453,17.175-13.314,26.1-1.331,3.2-6.125,13.847-.932,16.51,5.991,3.062,13.98-4.527,18.241-7.855-.266.133,6.79-5.592,7.19-4.394a35.733,35.733,0,0,1,.666,3.994,11.085,11.085,0,0,0,3.329,6.125,36.3,36.3,0,0,0-7.589.4c-1.331.266-1.465,2.263-.4,2.929,7.589,4.261,16.11,5.326,24.232,8.122C78.81,71.667,80.009,70.07,79.21,68.871ZM64.83,62.081a.92.92,0,0,0,.932-1.2,1.4,1.4,0,0,0,.666-1.2V54.359c2.663,4.261,5.326,8.388,7.989,12.649-5.059-1.465-10.252-2.53-15.045-4.527C61.1,62.347,62.966,62.214,64.83,62.081Z" transform="translate(-0.428 3125.717) rotate(-72.023)" fill="#d5d8f3"/>
    </g>
  </g>
</svg>
