<svg enable-background="new 0 0 60 61" height="512" viewBox="0 0 60 61" width="512" xmlns="http://www.w3.org/2000/svg"><path d="m58 7h1c.552 0 1-.447 1-1v-4c0-.553-.448-1-1-1h-4c-.552 0-1 .447-1 1v1h-20v-2c0-.553-.448-1-1-1h-6c-.552 0-1 .447-1 1v2h-20v-1c0-.553-.448-1-1-1h-4c-.552 0-1 .447-1 1v4c0 .553.448 1 1 1h1v47h-1c-.552 0-1 .447-1 1v4c0 .553.448 1 1 1h4c.552 0 1-.447 1-1v-1h20v2c0 .553.448 1 1 1h6c.552 0 1-.447 1-1v-2h20v1c0 .553.448 1 1 1h4c.552 0 1-.447 1-1v-4c0-.553-.448-1-1-1h-1v-23.5zm-2-4h2v2h-2zm-28-1h4v2.17 1.83h-4v-1.83-.17zm-26 1h2v2h-2zm2 4h1c.552 0 1-.447 1-1v-1h13.495c-7.097 2.805-12.683 8.358-15.495 15.27zm0 51h-2v-2h2zm1-4h-1v-13.27c2.812 6.912 8.398 12.465 15.495 15.27h-13.495v-1c0-.553-.448-1-1-1zm19.25-30.116 3.541 9.678c-1.269.93-1.842 2.61-1.274 4.159.332.909.999 1.635 1.878 2.043.486.226 1.004.339 1.524.339.421 0 .842-.074 1.248-.223.91-.333 1.635-1 2.043-1.878.408-.879.45-1.863.117-2.772-.566-1.549-2.087-2.463-3.657-2.355l-3.543-9.683 13.769 10.942c-1.626 2.231-2.077 4.905-1.195 7.33l1.159 3.171-12.1 4.426-1.161-3.175c-.896-2.447-3.026-4.184-5.805-4.788zm7.199 12.033c.149.407.13.849-.053 1.242-.183.394-.508.693-.917.843-.407.148-.85.131-1.242-.053-.394-.183-.693-.508-.842-.916-.308-.842.126-1.777.968-2.085.184-.067.372-.1.557-.1.663.001 1.287.411 1.529 1.069zm-3.002 15.024 12.1-4.427 2.253 6.162c-.056.031-.111.064-.167.094-.583.32-1.174.617-1.775.89-.077.035-.154.069-.232.103-.04.017-.08.034-.119.051-.605.264-1.218.507-1.841.724-.006.002-.013.005-.019.007-.096.034-.194.064-.291.097-.608.203-1.223.382-1.846.539-.133.034-.265.067-.398.098-.664.156-1.335.29-2.014.394-.033.005-.066.008-.099.013v-1.686c0-.553-.448-1-1-1h-3.799zm3.553 8.059h-4v-2.17-1.83h.5 3.5v1.83.17zm26-1h-2v-1-1h1 1zm-2-17.227v13.227h-1c-.552 0-1 .447-1 1v1h-13.51c.018-.007.035-.016.053-.024.599-.24 1.188-.508 1.771-.791.153-.074.304-.149.456-.226.599-.304 1.193-.623 1.775-.972.001-.001.002-.002.003-.002.602-.359 1.181-.742 1.748-1.139.181-.126.354-.259.531-.389.388-.285.768-.576 1.138-.878.187-.153.372-.307.555-.464.365-.313.717-.636 1.063-.966.151-.144.306-.285.454-.432.477-.477.94-.965 1.378-1.472.042-.048.079-.1.12-.149.395-.464.773-.94 1.135-1.427.129-.174.25-.352.375-.528.268-.379.527-.763.774-1.155.124-.196.246-.392.364-.59.246-.413.479-.832.702-1.257.09-.17.185-.338.271-.51.297-.596.576-1.201.829-1.818.003-.013.01-.025.015-.038zm-11.458 10.843-3.962-10.838c-.746-2.05-.21-4.281 1.47-6.124.187-.205.28-.478.257-.754-.022-.276-.158-.53-.375-.703l-17.095-13.585c-.161-.606-.485-2.288.473-3.507 1.091-1.387 3.625-1.894 7.325-1.478 3.713.426 6.29-.142 7.667-1.674 1.082-1.202 1.107-2.708.952-3.409l-1.952.434c.002.009.166.913-.486 1.639-.895.993-3.011 1.354-5.955 1.024-4.492-.513-7.559.241-9.123 2.229-1.58 2.009-1.041 4.548-.8 5.389l-4.309 21.465c-.055.276.008.562.174.789.167.227.42.373.7.402 2.564.273 4.466 1.607 5.218 3.661l2.349 6.424h-.07c-.552 0-1 .447-1 1v1.692c-12.619-1.897-22-12.54-22-25.192s9.381-23.295 22-25.192v1.692c0 .553.448 1 1 1h6c.552 0 1-.447 1-1v-1.692c12.619 1.897 22 12.54 22 25.192 0 8.569-4.264 16.37-11.458 21.116zm-4.037-46.616h13.495v1c0 .553.448 1 1 1h1v13.27c-2.812-6.912-8.398-12.465-15.495-15.27z"/></svg>